<svg xmlns="http://www.w3.org/2000/svg" width="132" height="19" fill="none"><path fill="#6D6E76" d="M9.766 9.188v2.93H3.602V18H.344V2.297h10.71v2.93H3.603v3.96h6.164ZM19.89 5.858c1.156 0 2.148.25 2.976.75a4.865 4.865 0 0 1 1.922 2.086c.453.875.68 1.89.68 3.047v1.266H16.89c.156.797.547 1.437 1.172 1.922.625.484 1.39.726 2.296.726.86 0 1.641-.172 2.344-.515.703-.344 1.266-.696 1.688-1.055l-.024 2.766c-.375.328-.937.664-1.687 1.007-.735.328-1.547.493-2.438.493-1.172 0-2.242-.266-3.21-.797a6.274 6.274 0 0 1-2.298-2.18c-.562-.922-.843-1.977-.843-3.164 0-1.156.257-2.211.773-3.164a6.15 6.15 0 0 1 2.133-2.297c.906-.594 1.937-.89 3.094-.89Zm-.07 2.602c-.735 0-1.352.226-1.852.68-.5.453-.844 1.062-1.032 1.828h5.672c-.062-.844-.375-1.469-.937-1.875a3.018 3.018 0 0 0-1.852-.633Zm13.054-2.602c.64 0 1.29.149 1.945.446A4.74 4.74 0 0 1 36.46 7.5V6.164h2.977V18h-2.976v-1.992c-.344.64-.844 1.195-1.5 1.664-.656.453-1.422.68-2.297.68a5.08 5.08 0 0 1-2.648-.727c-.797-.484-1.438-1.188-1.922-2.11-.485-.921-.727-2.038-.727-3.35 0-1.313.242-2.438.727-3.376.5-.937 1.164-1.656 1.992-2.156a5.246 5.246 0 0 1 2.789-.774Zm.61 2.907c-.626 0-1.165.164-1.618.492a3.221 3.221 0 0 0-1.031 1.242 3.764 3.764 0 0 0-.375 1.664c0 .89.266 1.649.797 2.274.547.624 1.265.937 2.156.937.531 0 1.023-.14 1.477-.422a3.12 3.12 0 0 0 1.125-1.172c.297-.515.445-1.133.445-1.851v-1.688a5.264 5.264 0 0 0-1.383-1.078 3.26 3.26 0 0 0-1.594-.398Zm13.898-6.047v3.445h3.281v2.484h-3.281v5.11c0 .531.117.953.351 1.265.25.297.618.446 1.102.446.422 0 .781-.047 1.078-.14.313-.095.602-.227.867-.4v2.368a3.722 3.722 0 0 1-1.125.75c-.437.203-.992.305-1.664.305-1.062 0-1.93-.336-2.601-1.008-.657-.688-.985-1.625-.985-2.813V8.648h-2.133V7.125c.75-.266 1.438-.766 2.063-1.5.64-.734 1.148-1.703 1.523-2.906h1.524ZM64.28 6.164v7.055c0 1.047-.234 1.953-.703 2.719a4.692 4.692 0 0 1-1.922 1.734c-.797.406-1.703.61-2.718.61-1.032 0-1.954-.204-2.766-.61a4.729 4.729 0 0 1-1.899-1.735c-.453-.765-.68-1.671-.68-2.718V6.164h3l.024 6.516c0 .922.211 1.61.633 2.062.422.453.984.68 1.688.68.687 0 1.242-.227 1.664-.68.437-.453.656-1.14.656-2.062V6.164h3.023Zm10.852 3.328a3.158 3.158 0 0 0-1.57-.422c-.688 0-1.258.227-1.711.68-.454.438-.852.984-1.196 1.64V18H67.68V6.164h2.976v2.227a6.704 6.704 0 0 1 1.43-1.758c.562-.469 1.195-.703 1.898-.703.422 0 .805.07 1.149.21v3.352Zm7.476-3.633c1.157 0 2.149.25 2.977.75a4.865 4.865 0 0 1 1.922 2.086c.453.875.68 1.89.68 3.047v1.266h-8.579c.157.797.547 1.437 1.172 1.922.625.484 1.39.726 2.297.726.86 0 1.64-.172 2.344-.515.703-.344 1.266-.696 1.687-1.055l-.023 2.766c-.375.328-.938.664-1.688 1.007-.734.328-1.546.493-2.437.493-1.172 0-2.242-.266-3.211-.797a6.274 6.274 0 0 1-2.297-2.18c-.562-.922-.844-1.977-.844-3.164 0-1.156.258-2.211.774-3.164a6.15 6.15 0 0 1 2.133-2.297c.906-.594 1.937-.89 3.093-.89Zm-.07 2.602c-.734 0-1.352.226-1.852.68-.5.453-.843 1.062-1.03 1.828h5.671c-.062-.844-.375-1.469-.937-1.875a3.018 3.018 0 0 0-1.852-.633Zm19.617-7.336V18H99.18v-1.992c-.344.64-.844 1.195-1.5 1.664-.657.453-1.422.68-2.297.68a5.08 5.08 0 0 1-2.649-.727c-.796-.484-1.437-1.188-1.921-2.11-.485-.921-.727-2.038-.727-3.35 0-1.313.242-2.438.727-3.376.5-.937 1.164-1.656 1.992-2.156a5.246 5.246 0 0 1 2.789-.774c.64 0 1.289.149 1.945.446A4.741 4.741 0 0 1 99.18 7.5V1.125h2.977Zm-5.953 7.664c-.625 0-1.164.164-1.617.492a3.221 3.221 0 0 0-1.031 1.242c-.25.5-.375 1.047-.375 1.641 0 .89.265 1.649.797 2.274.546.624 1.265.937 2.156.937.531 0 1.023-.14 1.476-.422a3.121 3.121 0 0 0 1.125-1.172c.297-.515.446-1.133.446-1.851v-1.688a4.862 4.862 0 0 0-1.383-1.055 3.26 3.26 0 0 0-1.594-.398ZM115.328 0c.563 0 1.047.203 1.453.61.407.39.61.859.61 1.406 0 .53-.203 1-.61 1.406-.406.406-.89.61-1.453.61a1.984 1.984 0 0 1-1.453-.61c-.391-.406-.586-.875-.586-1.406 0-.547.195-1.016.586-1.407.406-.406.891-.609 1.453-.609Zm1.734 6.164V18h-2.976V8.695h-1.898v-2.53h4.874Zm6.727 0v1.688c.359-.485.844-.938 1.453-1.36.625-.422 1.336-.633 2.133-.633 1.203 0 2.211.407 3.023 1.22.813.812 1.219 2.03 1.219 3.655V18h-2.976l-.024-6.867c0-.797-.195-1.39-.586-1.781-.375-.391-.898-.586-1.57-.586-.531 0-1.031.171-1.5.515-.453.344-.844.75-1.172 1.219V18h-2.977V6.164h2.977Z"/></svg>