<svg xmlns="http://www.w3.org/2000/svg" width="48" height="48" fill="none"><path fill="#232536" d="m25.03 13.914-10.99-1.67c-.51-.079-1.03.06-1.42.39-.39.341-.62.83-.62 1.34v21.07c0 .551.45 1.001 1 1.001h3.251v-5.25c0-.97.78-1.75 1.75-1.75h2.501c.97 0 1.75.78 1.75 1.75v5.25h4.25v-20.4a1.756 1.756 0 0 0-1.471-1.731Zm-7.53 12.88H16a.75.75 0 0 1 0-1.5h1.5a.75.75 0 0 1 0 1.5Zm0-3H16a.75.75 0 0 1 0-1.5h1.5a.75.75 0 0 1 0 1.5Zm0-3H16a.75.75 0 0 1 0-1.5h1.5a.75.75 0 0 1 0 1.5Zm0-3H16a.75.75 0 0 1 0-1.5h1.5a.75.75 0 0 1 0 1.5Zm5 9H21a.75.75 0 0 1 0-1.5h1.5a.75.75 0 0 1 0 1.5Zm0-3H21a.75.75 0 0 1 0-1.5h1.5a.75.75 0 0 1 0 1.5Zm0-3H21a.75.75 0 0 1 0-1.5h1.5a.75.75 0 0 1 0 1.5Zm0-3H21a.75.75 0 0 1 0-1.5h1.5a.75.75 0 0 1 0 1.5Z"/><path fill="#FFD050" d="m34.62 22.887-7.12-1.491v14.649h6.75c.965 0 1.75-.785 1.75-1.75v-9.698c0-.827-.563-1.53-1.38-1.71Zm-2.37 10.158h-1.5a.75.75 0 0 1 0-1.5h1.5a.75.75 0 0 1 0 1.5Zm0-3h-1.5a.75.75 0 0 1 0-1.5h1.5a.75.75 0 0 1 0 1.5Zm0-3h-1.5a.75.75 0 0 1 0-1.5h1.5a.75.75 0 0 1 0 1.5Z"/></svg>