<svg xmlns="http://www.w3.org/2000/svg" width="23" height="23" fill="none"><g clip-path="url(#a)"><path fill="#FFD050" d="m5.85 6.211-1.992.154a1.778 1.778 0 0 0-1.355.798L.205 10.638c-.233.352-.27.792-.099 1.178.17.385.521.654.938.719l1.824.282c.427-2.265 1.449-4.524 2.983-6.606ZM10.184 20.132l.282 1.824A1.226 1.226 0 0 0 11.684 23c.238 0 .473-.07.679-.205l3.475-2.298c.464-.307.755-.8.798-1.355l.154-1.993c-2.082 1.534-4.341 2.556-6.606 2.983ZM9.497 18.866c.063 0 .127-.005.19-.015a13.196 13.196 0 0 0 2.736-.776l-7.499-7.499a13.2 13.2 0 0 0-.775 2.736c-.063.374.063.755.33 1.024l4.185 4.184c.223.222.523.346.833.346Z"/><path fill="#232536" d="M21.166 10.197c1.835-3.547 1.903-7.296 1.807-9.055A1.18 1.18 0 0 0 21.858.027 18.54 18.54 0 0 0 20.849 0c-1.965 0-5.076.298-8.046 1.834-2.36 1.22-5.456 3.909-7.282 7.442a.676.676 0 0 1 .063.054l8.086 8.086c.02.02.037.041.054.063 3.533-1.826 6.221-4.921 7.442-7.282Zm-7.793-5.335a3.373 3.373 0 0 1 4.765 0c.636.637.986 1.483.986 2.383 0 .9-.35 1.746-.986 2.382a3.36 3.36 0 0 1-2.383.985 3.358 3.358 0 0 1-2.382-.985 3.347 3.347 0 0 1-.987-2.382c0-.9.35-1.746.987-2.383Z"/><path fill="#232536" d="M14.326 8.674a2.024 2.024 0 0 0 3.451-1.43c0-.54-.21-1.047-.592-1.429a2.015 2.015 0 0 0-1.43-.59c-.517 0-1.035.196-1.429.59-.381.382-.592.89-.592 1.43 0 .54.21 1.047.592 1.429Z"/><path fill="#FFD050" d="M.688 18.954a.671.671 0 0 0 .476-.198l2.2-2.2a.674.674 0 1 0-.953-.952l-2.2 2.2a.674.674 0 0 0 .477 1.15ZM5.38 17.62a.674.674 0 0 0-.953 0l-4.23 4.23a.674.674 0 0 0 .953.953l4.23-4.23a.674.674 0 0 0 0-.953ZM6.442 19.636l-2.2 2.2a.674.674 0 1 0 .953.953l2.2-2.2a.674.674 0 0 0-.953-.953Z"/></g><defs><clipPath id="a"><path fill="#fff" d="M0 0h23v23H0z"/></clipPath></defs></svg>