<svg xmlns="http://www.w3.org/2000/svg" width="17" height="14" fill="none"><path fill="#6D6E76" d="M5.7 13.5c6.036 0 9.338-5.002 9.338-9.338 0-.14-.003-.285-.01-.425a6.665 6.665 0 0 0 1.638-1.7 6.472 6.472 0 0 1-1.884.516A3.3 3.3 0 0 0 16.225.738a6.598 6.598 0 0 1-2.083.796 3.287 3.287 0 0 0-5.596 2.993A9.323 9.323 0 0 1 1.78 1.1a3.286 3.286 0 0 0 1.016 4.38 3.287 3.287 0 0 1-1.487-.409v.04a3.281 3.281 0 0 0 2.634 3.22c-.483.132-.99.15-1.481.056a3.289 3.289 0 0 0 3.065 2.281 6.583 6.583 0 0 1-4.862 1.358 9.312 9.312 0 0 0 5.033 1.475Z"/></svg>